# xmcd CD database file
#
# Track frame offsets:
#	150
#	900
#	1650
#	2400
#	88692
#
# Disc length: 4440 seconds
#
# Revision: 3
# Processed by: cddbd v1.5PL3 Copyright (c) Steve Scherf et al.
# Submitted via: CDex 1.51
#
DISCID=1a115605
DTITLE=????? - ????
DYEAR=2002
DGENRE=Anime
TTITLE0=Sneak Preview
TTITLE1=Ich and Er
TTITLE2=Sneak Preview Instrumental
TTITLE3=Ich and Er Instrumental
TTITLE4=Fake Dateisystem
EXTD=AFROB * SAMY DELUXE\nhttp://www.asdcrew.de YEAR: 2002
EXTT0=
EXTT1=
EXTT2=
EXTT3=
EXTT4=
PLAYORDER=
